<?xml version="1.0" standalone="no"?>
<!DOCTYPE svg PUBLIC "-//W3C//DTD SVG 20010904//EN"
 "http://www.w3.org/TR/2001/REC-SVG-20010904/DTD/svg10.dtd">
<svg version="1.0" xmlns="http://www.w3.org/2000/svg"
 width="512.000000pt" height="512.000000pt" viewBox="0 0 512.000000 512.000000"
 preserveAspectRatio="xMidYMid meet">
<metadata>
Created by potrace 1.14, written by Peter Selinger 2001-2017
</metadata>
<g transform="translate(0.000000,512.000000) scale(0.100000,-0.100000)"
fill="#000000" stroke="none">
<path d="M2310 5109 c-502 -55 -974 -249 -1355 -556 -129 -104 -340 -321 -433
-445 -265 -354 -434 -758 -498 -1193 -22 -147 -29 -428 -15 -575 42 -433 180
-833 405 -1174 414 -629 1047 -1032 1791 -1142 147 -22 428 -29 575 -15 433
42 833 180 1174 405 629 414 1032 1047 1142 1791 22 147 29 428 15 575 -51
524 -238 988 -558 1385 -104 129 -321 340 -445 433 -354 265 -755 432 -1193
498 -121 18 -487 26 -605 13z m590 -1102 c292 -69 498 -184 711 -397 133 -133
206 -232 284 -386 55 -109 62 -141 41 -186 -33 -68 -51 -73 -328 -76 -328 -4
-309 -10 -436 136 -124 143 -292 235 -483 263 -323 47 -661 -135 -813 -438
-14 -28 -38 -91 -52 -140 -23 -76 -27 -106 -27 -223 0 -117 4 -147 27 -223 46
-154 116 -268 229 -374 314 -293 806 -278 1097 35 36 39 79 86 95 105 46 53
81 59 364 55 273 -3 281 -5 322 -71 27 -44 20 -81 -41 -202 -204 -403 -573
-683 -1030 -782 -132 -28 -430 -26 -569 5 -486 109 -859 417 -1054 872 -86
201 -122 403 -114 630 14 398 154 718 436 1001 232 232 483 361 806 415 129
22 404 12 535 -19z"/>
</g>
</svg>
